<svg width="17" height="17" viewBox="0 0 17 17" fill="none" xmlns="http://www.w3.org/2000/svg">
<path d="M14.1672 8.50002L14.4179 8.24927L14.668 8.50002L14.4179 8.75077L14.1672 8.50002ZM3.54218 8.85418C3.44825 8.85418 3.35816 8.81687 3.29175 8.75045C3.22533 8.68403 3.18801 8.59395 3.18801 8.50002C3.18801 8.40609 3.22533 8.316 3.29175 8.24958C3.35816 8.18316 3.44825 8.14585 3.54218 8.14585V8.85418ZM10.1679 3.99927L14.4179 8.24927L13.9164 8.75077L9.66643 4.50077L10.1679 3.99927ZM14.4179 8.75077L10.1679 13.0008L9.66643 12.4993L13.9164 8.24927L14.4179 8.75077ZM14.1672 8.85418H3.54218V8.14585H14.1672V8.85418Z" fill="white"/>
</svg>
